<svg width="171" height="127" viewBox="0 0 171 127" fill="none" xmlns="http://www.w3.org/2000/svg">
<g id="Group">
<path id="Vector" d="M25.7275 40.5659L25.7275 40.5659C24.6606 38.699 24.4642 35.9611 25.1156 33.0032C25.7642 30.0582 27.2393 26.9666 29.4151 24.4399C31.5892 21.9152 34.4478 19.9704 37.8638 19.2768C41.267 18.5858 45.2753 19.1259 49.7832 21.6547C49.793 21.6619 49.8052 21.6708 49.8198 21.6813C49.8607 21.7106 49.9201 21.7525 49.9979 21.8052C50.1534 21.9105 50.3823 22.0591 50.6822 22.237C51.2821 22.5927 52.1667 23.0662 53.3182 23.5461C55.6214 24.506 58.9929 25.492 63.2859 25.6124C71.8867 25.8538 84.1028 22.6201 98.77 8.93042C105.173 2.95398 111.222 0.880959 116.678 1.32857C122.148 1.77731 127.121 4.76734 131.343 9.11484C135.564 13.4608 139.001 19.1313 141.392 24.8569C143.785 30.5857 145.114 36.332 145.151 40.818C145.233 51.0394 140.35 60.3689 135.812 69.0382C135.164 70.277 134.522 71.5023 133.904 72.7149C131.444 77.5336 129.339 82.1628 128.663 86.583C127.982 91.0345 128.749 95.2813 132.018 99.2931C135.038 103 135.069 107.303 133.057 111.411C131.035 115.54 126.951 119.445 121.812 122.202C111.53 127.718 97.2609 128.531 87.2801 117.643C80.9206 110.706 75.681 106.867 71.1509 105.046C66.599 103.216 62.7929 103.436 59.3491 104.548C56.7051 105.402 54.2588 106.791 51.8806 108.141C51.1973 108.529 50.5197 108.914 49.8446 109.282C46.789 110.947 43.7448 112.298 40.2657 112.298C37.852 112.298 34.6924 110.781 31.494 108.092C28.3149 105.419 25.1711 101.65 22.79 97.2854C18.0238 88.5492 16.3645 77.5466 23.3894 68.18C29.4711 60.0712 30.9311 54.5704 30.3698 50.331C30.0901 48.2181 29.3126 46.4579 28.4157 44.8861C27.9684 44.1021 27.4885 43.3602 27.0269 42.6485L26.9932 42.5966C26.5411 41.8997 26.1089 41.2336 25.7275 40.5659Z" fill="#FFAAAA" stroke="#872D2D"/>
<g id="Group_2">
<path id="Vector_2" d="M127.112 53.4217C128.144 53.805 129.272 53.8305 130.344 53.5843C134.838 52.5527 150.292 49.8214 147.606 61.7963C147.022 64.1721 137.971 77.4777 150.86 82.3347C151.805 82.6951 152.804 82.8918 153.814 82.9165C157.783 82.9982 165.647 82.0613 168.938 78.7109C172.914 74.6636 168.57 76.5829 168.57 76.5829C168.57 76.5829 153.455 83.1791 148.116 76.181C147.521 75.4023 147.143 74.2714 147.035 73.2978C146.847 71.6099 147.596 69.3793 148.581 67.4375C149.914 64.8094 156.311 52.9872 142.421 49.5433C139.221 48.7813 134.574 48.0968 128.581 50.6198C125.086 52.0913 125.86 52.9564 127.112 53.4217Z" fill="#872D2D"/>
<path id="Vector_3" d="M130.205 49.0083L126.182 50.514C124.793 51.0338 124.089 52.581 124.609 53.9698L124.808 54.5026C125.328 55.8914 126.875 56.5959 128.264 56.0761L132.287 54.5704C133.676 54.0506 134.38 52.5034 133.861 51.1146L133.661 50.5818C133.141 49.193 131.594 48.4885 130.205 49.0083Z" fill="#E50E0E"/>
<path id="Vector_4" d="M105.51 53.3652L92.2417 58.331C91.5473 58.5909 91.1951 59.3645 91.455 60.0589L91.5073 60.1986C91.7671 60.893 92.5407 61.2452 93.2351 60.9853L106.503 56.0195C107.198 55.7596 107.55 54.986 107.29 54.2916L107.238 54.152C106.978 53.4576 106.204 53.1053 105.51 53.3652Z" fill="black"/>
<path id="Vector_5" d="M109.213 63.2594L95.9449 68.2252C95.2505 68.4851 94.8982 69.2587 95.1581 69.9531L95.2104 70.0928C95.4703 70.7872 96.2439 71.1394 96.9383 70.8795L110.207 65.9137C110.901 65.6538 111.253 64.8802 110.993 64.1858L110.941 64.0461C110.681 63.3517 109.908 62.9995 109.213 63.2594Z" fill="black"/>
<path id="Vector_6" d="M121.463 46.613L110.709 50.6377C109.321 51.1575 108.616 52.7047 109.136 54.0935L112.807 63.9034C113.327 65.2922 114.874 65.9967 116.263 65.4769L127.017 61.4522C128.406 60.9325 129.11 59.3853 128.59 57.9965L124.919 48.1865C124.399 46.7977 122.852 46.0933 121.463 46.613Z" fill="#F95858"/>
<path id="Vector_7" d="M111.82 49.1866L101.067 53.2113C99.6779 53.7311 98.9734 55.2783 99.4932 56.6671L103.873 68.3707C104.393 69.7595 105.94 70.464 107.329 69.9443L118.083 65.9196C119.472 65.3998 120.176 63.8526 119.656 62.4638L115.276 50.7601C114.756 49.3713 113.209 48.6669 111.82 49.1866Z" fill="#FF6969"/>
<path id="Vector_8" d="M113.504 46.8114L113.42 46.843C112.494 47.1895 112.024 48.221 112.37 49.1469L118.507 65.5424C118.853 66.4682 119.885 66.9379 120.811 66.5914L120.895 66.5598C121.821 66.2133 122.29 65.1818 121.944 64.256L115.808 47.8604C115.461 46.9346 114.43 46.4649 113.504 46.8114Z" fill="#F22020"/>
<path id="Vector_9" d="M3.85148 57.2941C3.85148 57.2941 25.4485 51.2247 22.313 65.2079C21.7685 67.4205 13.9302 78.8128 23.2668 84.2826C25.2716 85.4571 27.5852 85.9774 29.9085 85.9652C34.0741 85.9436 40.6779 85.1418 43.6445 82.1222C47.6205 78.0748 43.2769 79.9941 43.2769 79.9941C43.2769 79.9941 30.8733 85.0963 24.4921 81.0292C22.3133 79.6405 21.3256 76.9518 21.9173 74.4365C22.2197 73.1872 22.6803 71.9815 23.2877 70.8487C24.6755 68.2494 31.018 56.3984 17.1276 52.9545C13.9278 52.1925 9.28037 51.508 3.2879 54.031C-2.70457 56.554 3.85148 57.2941 3.85148 57.2941Z" fill="#872D2D"/>
<path id="Vector_10" d="M46.5486 76.8652L42.5254 78.3709C41.1366 78.8907 40.4321 80.4379 40.9519 81.8267L41.1513 82.3596C41.6711 83.7484 43.2183 84.4529 44.6071 83.9331L48.6303 82.4273C50.0191 81.9076 50.7236 80.3603 50.2038 78.9715L50.0044 78.4387C49.4846 77.0499 47.9374 76.3454 46.5486 76.8652Z" fill="#E50E0E"/>
<path id="Vector_11" d="M53.3459 70.2458L47.3833 72.4774C45.9945 72.9972 45.29 74.5444 45.8098 75.9332L48.6849 83.6153C49.2047 85.0041 50.7519 85.7086 52.1407 85.1888L58.1033 82.9573C59.4921 82.4375 60.1966 80.8903 59.6768 79.5015L56.8017 71.8193C56.2819 70.4305 54.7347 69.726 53.3459 70.2458Z" fill="#F95858"/>
<path id="Vector_12" d="M63.2723 64.3313L54.3804 67.6592C52.9916 68.179 52.2871 69.7262 52.8069 71.115L57.1871 82.8187C57.7069 84.2075 59.2541 84.9119 60.6429 84.3922L69.5348 81.0643C70.9236 80.5445 71.6281 78.9973 71.1083 77.6085L66.7281 65.9048C66.2083 64.516 64.6611 63.8115 63.2723 64.3313Z" fill="#FF6969"/>
<path id="Vector_13" d="M65.1557 61.9075L65.0714 61.9391C64.1455 62.2856 63.6758 63.3171 64.0224 64.2429L70.1586 80.6384C70.5051 81.5643 71.5366 82.034 72.4625 81.6875L72.5468 81.6559C73.4727 81.3094 73.9423 80.2779 73.5958 79.352L67.4596 62.9565C67.113 62.0307 66.0816 61.561 65.1557 61.9075Z" fill="#F22020"/>
<g id="Group_3">
<path id="Vector_14" d="M87.8616 51.4623C87.5414 51.4267 87.2474 51.2683 87.0416 51.0204C86.8358 50.7725 86.7342 50.4545 86.7582 50.1332L87.4217 38.0149C87.4612 37.291 88.0725 36.741 88.7662 36.805L89.7328 36.8945C90.4265 36.9585 90.9232 37.6105 90.8262 38.3293L89.1958 50.3581C89.1583 50.6785 88.9987 50.9721 88.7502 51.1778C88.5016 51.3835 88.1833 51.4854 87.8616 51.4623Z" fill="#F94141"/>
<path id="Vector_15" d="M82.1328 52.5071C82.0332 52.5364 81.9288 52.5458 81.8256 52.5347C81.7224 52.5236 81.6224 52.4923 81.5313 52.4426C81.4402 52.3928 81.3597 52.3256 81.2946 52.2448C81.2295 52.164 81.1809 52.0711 81.1516 51.9715L78.7824 44.4333C78.7135 44.2189 78.7324 43.9859 78.8351 43.7855C78.9377 43.5851 79.1157 43.4336 79.33 43.3642L79.9434 43.1791C80.0486 43.1484 80.1591 43.1398 80.2678 43.154C80.3766 43.1681 80.4812 43.2046 80.5751 43.2612C80.669 43.3178 80.7501 43.3933 80.8134 43.4828C80.8767 43.5723 80.9207 43.674 80.9427 43.7814L82.6986 51.5048C82.7476 51.7124 82.7165 51.9309 82.6117 52.1166C82.5068 52.3024 82.3359 52.4418 82.1328 52.5071Z" fill="#F94141"/>
<path id="Vector_16" d="M78.9358 56.8542C78.5113 57.3802 77.6576 57.374 77.0004 56.84L65.3322 47.36C64.6353 46.7937 64.4296 45.8564 64.88 45.2988L65.5077 44.5213C65.958 43.9634 66.883 44.0091 67.5425 44.6218L78.583 54.8795C79.2048 55.4571 79.3603 56.3282 78.9358 56.8542Z" fill="#F94141"/>
</g>
<g id="Group_4">
<path id="Vector_17" d="M84.3293 81.34C84.6298 81.4562 84.8736 81.6844 85.0093 81.9766C85.1449 82.2688 85.1619 82.6023 85.0567 82.9068L81.3203 94.4535C81.0971 95.1432 80.3657 95.5185 79.7113 95.2798L78.7992 94.9466C78.1449 94.7075 77.8308 93.95 78.1085 93.2802L82.7569 82.0668C82.8749 81.7664 83.1043 81.5231 83.3972 81.3877C83.6902 81.2523 84.0241 81.2352 84.3293 81.34Z" fill="#F94141"/>
<path id="Vector_18" d="M90.1349 81.7929C90.2386 81.7901 90.342 81.8077 90.4389 81.8447C90.5359 81.8818 90.6246 81.9376 90.7 82.009C90.7754 82.0803 90.836 82.1658 90.8784 82.2606C90.9207 82.3554 90.944 82.4576 90.9468 82.5614L91.3123 90.4547C91.3242 90.6796 91.2463 90.9 91.0959 91.0676C90.9455 91.2351 90.7347 91.3362 90.5099 91.3486L89.8694 91.3709C89.7598 91.3737 89.6508 91.3537 89.5493 91.3123C89.4478 91.2709 89.356 91.2088 89.2796 91.1301C89.2033 91.0514 89.1441 90.9577 89.1058 90.855C89.0675 90.7523 89.0509 90.6427 89.0571 90.5332L89.3321 82.6176C89.3378 82.4044 89.4236 82.2012 89.5723 82.0484C89.7211 81.8955 89.9219 81.8044 90.1349 81.7929Z" fill="#F94141"/>
<path id="Vector_19" d="M94.3361 78.4065C94.881 78.0063 95.7047 78.2304 96.2038 78.9145L105.064 91.0597C105.593 91.7853 105.553 92.7436 104.974 93.168L104.169 93.7595C103.591 94.1839 102.708 93.9034 102.227 93.1425L94.1722 80.4054C93.7193 79.6885 93.7913 78.8066 94.3361 78.4065Z" fill="#F94141"/>
</g>
</g>
</g>
</svg>
